# File created by Blade
# Date/Time:  Wed Apr 08 17:16:55 2015
#---------------------------------------------------------
:version 1.10
:name HOM
:units
  mass 1.0
  length 1.000000
  angle deg
:documentation
     Acclaim Skeleton File
:root
   axis xyz
   order TX TY TZ RX RY RZ
   position 0.000000 0.000000 0.000000
   orientation 0 0 0
:bonedata
   begin
      id 1
      name Spine_dum
      direction 0.000000 1.000000 0.000000
      length 5.893853
      axis 0.0 0.0 0.0 xyz
   end
   begin
      id 2
      name LeftUpLeg_dum
      direction 1.000000 0.000000 0.000000
      length 3.697939
      axis 0.0 0.0 0.0 xyz
   end
   begin
      id 3
      name RightUpLeg_dum
      direction -1.000000 0.000000 0.000000
      length 3.697939
      axis 0.0 0.0 0.0 xyz
   end
   begin
      id 4
      name Spine
      direction 0.000000 1.000000 0.000000
      length 0.000000
      axis 0.0 0.0 0.0 xyz
      dof rx ry rz
   end
   begin
      id 5
      name Spine_dum1
      direction 0.000000 1.000000 0.000000
      length 16.447146
      axis 0.0 0.0 0.0 xyz
   end
   begin
      id 6
      name Spine_dum2
      direction 0.000000 1.000000 0.000000
      length 10.900383
      axis 0.0 0.0 0.0 xyz
   end
   begin
      id 7
      name Spine_dum3
      direction 0.000000 1.000000 0.000000
      length 10.900383
      axis 0.0 0.0 0.0 xyz
   end
   begin
      id 8
      name Head
      direction 0.000000 1.000000 0.000000
      length 4.527550
      axis 0.0 0.0 0.0 xyz
      dof rx ry rz
   end
   begin
      id 9
      name LeftShoulder
      direction 1.000000 0.000000 0.000000
      length 8.219464
      axis 0.0 0.0 -90.0 xyz
      dof rx ry rz
   end
   begin
      id 10
      name LeftArm
      direction 1.000000 0.000000 0.000000
      length 11.094937
      axis 0.0 0.0 -90.0 xyz
      dof rx ry rz
   end
   begin
      id 11
      name LeftForeArm
      direction 1.000000 0.000000 0.000000
      length 9.103875
      axis 0.0 0.0 -90.0 xyz
      dof ry rz rx
   end
   begin
      id 12
      name LeftHand
      direction 0.000000 0.000000 0.000000
      length 0.000000
      axis 0.0 0.0 -90.0 xyz
      dof rx ry rz
   end
   begin
      id 13
      name LeftHand_dum1
      direction 0.000000 0.000000 0.000000
      length 0.000000
      axis 0.0 0.0 -90.0 xyz
   end
   begin
      id 14
      name LeftHand_dum2
      direction 1.000000 0.000000 0.000000
      length 3.937000
      axis 0.0 0.0 -90.0 xyz
   end
   begin
      id 15
      name LeftHandThumb1
      direction 0.000000 0.000000 1.000000
      length 3.937000
      axis 0.0 0.0 -90.0 xyz
      dof rx rz ry
   end
   begin
      id 16
      name RightShoulder
      direction -1.000000 0.000000 0.000000
      length 8.219464
      axis 0.0 0.0 90.0 xyz
      dof rx ry rz
   end
   begin
      id 17
      name RightArm
      direction -1.000000 0.000000 0.000000
      length 11.094937
      axis 0.0 0.0 90.0 xyz
      dof rx ry rz
   end
   begin
      id 18
      name RightForeArm
      direction -1.000000 0.000000 0.000000
      length 9.103875
      axis 0.0 0.0 90.0 xyz
      dof ry rz rx
   end
   begin
      id 19
      name RightHand
      direction 0.000000 0.000000 0.000000
      length 0.000000
      axis 0.0 0.0 90.0 xyz
      dof rx ry rz
   end
   begin
      id 20
      name RightHand_dum1
      direction 0.000000 0.000000 0.000000
      length 0.000000
      axis 0.0 0.0 90.0 xyz
   end
   begin
      id 21
      name RightHand_dum2
      direction -1.000000 0.000000 0.000000
      length 3.937000
      axis 0.0 0.0 90.0 xyz
   end
   begin
      id 22
      name RightHandThumb1
      direction 0.000000 0.000000 1.000000
      length 3.937000
      axis 0.0 0.0 90.0 xyz
      dof rx rz ry
   end
   begin
      id 23
      name LeftUpLeg
      direction 0.000000 -1.000000 0.000000
      length 16.181467
      axis 0.0 0.0 0.0 xyz
      dof rx ry rz
   end
   begin
      id 24
      name LeftLeg
      direction 0.000000 -1.000000 0.000000
      length 16.501392
      axis 0.0 0.0 0.0 xyz
      dof rx ry rz
   end
   begin
      id 25
      name LeftFoot
      direction 0.000000 -0.258819 0.965926
      length 6.408245
      axis 15.0 0.0 0.0 xyz
      dof rx ry rz
   end
   begin
      id 26
      name LeftToeBase
      direction 0.000000 0.000000 1.000000
      length 2.952750
      axis 0.0 0.0 0.0 xyz
      dof rx ry rz
   end
   begin
      id 27
      name RightUpLeg
      direction 0.000000 -1.000000 0.000000
      length 16.181467
      axis 0.0 0.0 0.0 xyz
      dof rx ry rz
   end
   begin
      id 28
      name RightLeg
      direction 0.000000 -1.000000 0.000000
      length 16.501392
      axis 0.0 0.0 0.0 xyz
      dof rx ry rz
   end
   begin
      id 29
      name RightFoot
      direction 0.000000 -0.258819 0.965926
      length 6.408245
      axis 15.0 0.0 0.0 xyz
      dof rx ry rz
   end
   begin
      id 30
      name RightToeBase
      direction 0.000000 0.000000 1.000000
      length 2.952750
      axis 0.0 0.0 0.0 xyz
      dof rx ry rz
   end
:hierarchy
   begin
      root Spine_dum LeftUpLeg_dum RightUpLeg_dum
      Spine_dum Spine
      LeftUpLeg_dum LeftUpLeg
      RightUpLeg_dum RightUpLeg
      Spine Spine_dum1 Spine_dum2 Spine_dum3
      Spine_dum1 Head
      Spine_dum2 LeftShoulder
      Spine_dum3 RightShoulder
      LeftShoulder LeftArm
      LeftArm LeftForeArm
      LeftForeArm LeftHand
      LeftHand LeftHand_dum1 LeftHand_dum2
      LeftHand_dum1 LeftHandThumb1
      RightShoulder RightArm
      RightArm RightForeArm
      RightForeArm RightHand
      RightHand RightHand_dum1 RightHand_dum2
      RightHand_dum1 RightHandThumb1
      LeftUpLeg LeftLeg
      LeftLeg LeftFoot
      LeftFoot LeftToeBase
      RightUpLeg RightLeg
      RightLeg RightFoot
      RightFoot RightToeBase
   end

# File created by Blade
# Date/Time:  Wed Apr 08 17:17:01 2015
# Frame Rate: 120.000 fps
#------------------------------------------------------
:FULLY-SPECIFIED
:DEGREES
224
root 5.340033 36.223873 3.442681 -8.494386 -54.363144 1.304691
Spine 14.283744 -3.184539 -3.058870
Head 4.861678 14.841050 3.256577
LeftShoulder -9.057052 19.451912 12.394520
LeftArm 20.431211 21.934560 -81.358044
LeftForeArm 19.619130 -0.000000 31.200486
LeftHand -12.834796 -0.000000 -9.679112
LeftHandThumb1 -26.253704 0.000000 33.147579
RightShoulder -35.813562 -49.949958 17.345542
RightArm 50.883779 -15.591030 58.456831
RightForeArm 7.919256 -0.000000 29.171828
RightHand 3.179215 -0.000000 6.095082
RightHandThumb1 -24.326973 -0.000000 -32.862282
LeftUpLeg 8.350826 9.029721 -4.563246
LeftLeg 6.757433 -0.000000 -0.000000
LeftFoot -11.074863 4.457291 -9.851985
LeftToeBase 9.983988 -0.000000 -0.000000
RightUpLeg -49.744800 7.799812 3.906555
RightLeg 138.313368 -0.000000 -0.000000
RightFoot -10.180828 0.768144 12.715113
RightToeBase 0.546389 -0.000000 -0.000000
225
root 5.333622 36.231715 3.471489 -8.487509 -53.747764 1.245035
Spine 14.313796 -3.314027 -3.005681
Head 4.888026 14.777881 3.259014
LeftShoulder -9.032380 19.433004 12.339631
LeftArm 20.532368 22.063724 -81.282666
LeftForeArm 19.402676 0.000000 31.356835
LeftHand -12.815523 -0.000000 -9.571040
LeftHandThumb1 -26.253704 0.000000 33.147579
RightShoulder -35.857766 -49.961352 17.412588
RightArm 50.730808 -15.685632 58.329022
RightForeArm 7.926390 -0.000000 28.657561
RightHand 3.290480 -0.000000 5.998578
RightHandThumb1 -24.326973 -0.000000 -32.862282
LeftUpLeg 8.495546 8.876246 -4.528926
LeftLeg 6.617070 -0.000000 -0.000000
LeftFoot -10.930676 3.996016 -9.918740
LeftToeBase 10.129244 -0.000000 -0.000000
RightUpLeg -50.329239 7.724308 4.418290
RightLeg 138.660628 -0.000000 -0.000000
RightFoot -10.264645 0.809155 12.529317
RightToeBase 0.427301 -0.000000 -0.000000
226
root 5.331031 36.239252 3.495712 -8.457675 -53.111710 1.194826
Spine 14.319579 -3.466936 -2.969395
Head 4.911673 14.723139 3.267223
LeftShoulder -9.060801 19.402471 12.295424
LeftArm 20.701111 22.294531 -81.139015
LeftForeArm 19.208429 -0.000000 31.461877
LeftHand -12.873230 -0.000000 -9.599591
LeftHandThumb1 -26.253704 0.000000 33.147579
RightShoulder -35.905474 -49.972518 17.474522
RightArm 50.610773 -15.764001 58.244120
RightForeArm 7.813303 -0.000000 28.109090
RightHand 3.289953 0.000000 5.991063
RightHandThumb1 -24.326973 -0.000000 -32.862282
LeftUpLeg 8.567049 8.647744 -4.531422
LeftLeg 6.531571 -0.000000 -0.000000
LeftFoot -10.781936 3.650886 -9.887914
LeftToeBase 10.312548 -0.000000 -0.000000
RightUpLeg -50.902210 7.689170 4.868769
RightLeg 138.850421 -0.000000 -0.000000
RightFoot -10.437813 0.922483 12.362437
RightToeBase 0.274834 -0.000000 -0.000000
227
root 5.328753 36.245866 3.519791 -8.351438 -52.464538 1.086458
Spine 14.301821 -3.699713 -2.901125
Head 4.876754 14.709372 3.261856
LeftShoulder -9.143205 19.323537 12.245628
LeftArm 20.704503 22.507439 -81.132270
LeftForeArm 19.118716 -0.000000 31.620265
LeftHand -12.892511 -0.000000 -9.207976
LeftHandThumb1 -26.253704 0.000000 33.147579
RightShoulder -35.836237 -49.962057 17.430882
RightArm 50.441385 -15.837932 58.186915
RightForeArm 7.718917 0.000000 27.598934
RightHand 3.292847 0.000000 6.038679
RightHandThumb1 -24.326973 -0.000000 -32.862282
LeftUpLeg 8.594709 8.261851 -4.537983
LeftLeg 6.457144 -0.000000 -0.000000
LeftFoot -10.662088 3.440848 -9.843336
LeftToeBase 10.256596 -0.000000 -0.000000
RightUpLeg -51.527946 7.644233 5.325722
RightLeg 138.888075 -0.000000 -0.000000
RightFoot -10.544342 0.886314 12.071445
RightToeBase 0.095549 -0.000000 -0.000000
228
root 5.326534 36.251788 3.540960 -8.261354 -51.836654 0.977504
Spine 14.291021 -3.862794 -2.827986
Head 4.870486 14.706784 3.259763
LeftShoulder -9.140193 19.260602 12.240902
LeftArm 20.731397 22.729178 -81.105161
LeftForeArm 19.077629 -0.000000 31.790269
LeftHand -12.925565 -0.000000 -9.015946
LeftHandThumb1 -26.253704 0.000000 33.147579
RightShoulder -35.772648 -49.956980 17.383410
RightArm 50.258824 -15.935313 58.172884
RightForeArm 7.539487 -0.000000 27.103301
RightHand 3.374030 -0.000000 5.920463
RightHandThumb1 -24.326973 -0.000000 -32.862282
LeftUpLeg 8.608152 7.885249 -4.540299
LeftLeg 6.438025 -0.000000 -0.000000
LeftFoot -10.570402 3.260574 -9.745493
LeftToeBase 10.273943 -0.000000 -0.000000
RightUpLeg -52.116516 7.629766 5.736047
RightLeg 138.806850 -0.000000 -0.000000
RightFoot -10.718400 0.828399 11.739489
RightToeBase -0.273000 -0.000000 0.000000
229
root 5.324252 36.257127 3.560274 -8.160228 -51.230936 0.847885
Spine 14.281100 -3.971376 -2.727853
Head 4.871756 14.618130 3.302159
LeftShoulder -9.098020 19.199143 12.260365
LeftArm 20.784624 22.996797 -81.033308
LeftForeArm 19.000913 -0.000000 31.961408
LeftHand -12.909405 -0.000000 -8.992330
LeftHandThumb1 -26.253704 0.000000 33.147579
RightShoulder -35.801808 -49.950780 17.414531
RightArm 50.123050 -15.998369 58.160533
RightForeArm 7.419500 -0.000000 26.619288
RightHand 3.301743 -0.000000 5.921053
RightHandThumb1 -24.326973 -0.000000 -32.862282
LeftUpLeg 8.594712 7.565355 -4.515926
LeftLeg 6.483148 -0.000000 -0.000000
LeftFoot -10.499957 3.059318 -9.597559
LeftToeBase 10.276815 -0.000000 -0.000000
RightUpLeg -52.700036 7.653071 6.082944
RightLeg 138.601526 -0.000000 -0.000000
RightFoot -10.927859 0.716640 11.310224
RightToeBase -0.652316 -0.000000 0.000000
230
root 5.321689 36.261831 3.580113 -8.100895 -50.632107 0.745748
Spine 14.305668 -4.061347 -2.651924
Head 4.816071 14.538502 3.342452
LeftShoulder -9.078141 19.087284 12.288042
LeftArm 20.824509 23.284322 -80.959916
LeftForeArm 19.024469 -0.000000 32.110042
LeftHand -12.861972 -0.000000 -9.070662
LeftHandThumb1 -26.253704 0.000000 33.147579
RightShoulder -35.854498 -49.930318 17.508164
RightArm 49.995823 -16.119465 58.011315
RightForeArm 7.325884 -0.000000 26.216950
RightHand 3.391344 -0.000000 5.628602
RightHandThumb1 -24.326973 -0.000000 -32.862282
LeftUpLeg 8.586921 7.254377 -4.503456
LeftLeg 6.556485 -0.000000 -0.000000
LeftFoot -10.425496 2.849230 -9.450903
LeftToeBase 10.155319 -0.000000 -0.000000
RightUpLeg -53.294959 7.705797 6.329433
RightLeg 138.313172 -0.000000 -0.000000
RightFoot -11.241288 0.874625 11.388325
RightToeBase -0.377171 -0.000000 0.000000
231
root 5.322292 36.266146 3.599966 -8.050013 -50.045884 0.654762
Spine 14.339142 -4.134175 -2.568625
Head 4.741281 14.441362 3.343277
LeftShoulder -9.055744 18.997409 12.280731
LeftArm 20.891137 23.606177 -80.815715
LeftForeArm 19.033357 -0.000000 32.315623
LeftHand -12.892266 0.000000 -9.126374
LeftHandThumb1 -26.253704 0.000000 33.147579
RightShoulder -35.876439 -49.903524 17.536409
RightArm 49.850369 -16.125557 58.078995
RightForeArm 7.155227 -0.000000 25.772745
RightHand 3.406398 -0.000000 5.739921
RightHandThumb1 -24.326973 -0.000000 -32.862282
LeftUpLeg 8.590529 6.848963 -4.514272
LeftLeg 6.596163 -0.000000 -0.000000
LeftFoot -10.336680 2.706345 -9.325348
LeftToeBase 10.040679 -0.000000 -0.000000
RightUpLeg -53.864223 7.765272 6.545960
RightLeg 137.932280 -0.000000 -0.000000
RightFoot -11.426255 0.711641 11.002628
RightToeBase -1.063217 -0.000000 0.000000
232
root 5.323108 36.268968 3.617700 -8.022402 -49.484731 0.576397
Spine 14.399624 -4.196055 -2.498540
Head 4.635320 14.349703 3.342050
LeftShoulder -9.057463 18.919855 12.277584
LeftArm 20.977071 23.862469 -80.719505
LeftForeArm 19.123476 0.000000 32.473715
LeftHand -12.837061 -0.000000 -9.276079
LeftHandThumb1 -26.253704 0.000000 33.147579
RightShoulder -35.853311 -49.862150 17.530700
RightArm 49.688330 -16.134933 58.165136
RightForeArm 7.002216 -0.000000 25.388591
RightHand 3.421214 0.000000 5.780292
RightHandThumb1 -24.326973 -0.000000 -32.862282
LeftUpLeg 8.574188 6.523103 -4.515833
LeftLeg 6.696633 -0.000000 -0.000000
LeftFoot -10.250208 2.526786 -9.126419
LeftToeBase 9.823806 -0.000000 -0.000000
RightUpLeg -54.429994 7.863706 6.691880
RightLeg 137.490142 -0.000000 -0.000000
RightFoot -11.786916 0.829429 11.133354
RightToeBase -1.180568 -0.000000 0.000000
233
root 5.324654 36.270157 3.636951 -8.028156 -48.962339 0.524257
Spine 14.484500 -4.159665 -2.441027
Head 4.468718 14.212341 3.372331
LeftShoulder -9.009359 18.807437 12.319088
LeftArm 21.042159 24.174902 -80.607537
LeftForeArm 19.208447 -0.000000 32.663890
LeftHand -12.788116 -0.000000 -9.471726
LeftHandThumb1 -26.253704 0.000000 33.147579
RightShoulder -35.957500 -49.826556 17.687763
RightArm 49.568714 -16.127824 58.137675
RightForeArm 6.984844 0.000000 25.107907
RightHand 3.390724 -0.000000 5.764156
RightHandThumb1 -24.326973 -0.000000 -32.862282
LeftUpLeg 8.571367 6.206663 -4.536864
LeftLeg 6.798235 -0.000000 -0.000000
LeftFoot -10.191848 2.381859 -8.965949
LeftToeBase 9.701824 -0.000000 -0.000000
RightUpLeg -54.985559 7.957467 6.817608
RightLeg 137.025898 -0.000000 -0.000000
RightFoot -11.848917 0.614807 10.664905
RightToeBase -1.535602 -0.000000 0.000000
234
root 5.323382 36.269212 3.653473 -8.048203 -48.454907 0.477741
Spine 14.583661 -4.164015 -2.404355
Head 4.301648 14.146920 3.378765
LeftShoulder -9.019848 18.695900 12.351688
LeftArm 21.122024 24.504663 -80.463922
LeftForeArm 19.191055 -0.000000 32.806650
LeftHand -12.667324 -0.000000 -9.696395
LeftHandThumb1 -26.253704 0.000000 33.147579
RightShoulder -35.983716 -49.776416 17.737139
RightArm 49.487483 -16.158561 58.136154
RightForeArm 6.965048 -0.000000 24.763404
RightHand 3.447828 0.000000 5.762419
RightHandThumb1 -24.326973 -0.000000 -32.862282
LeftUpLeg 8.508864 6.112285 -4.512846
LeftLeg 7.043687 -0.000000 -0.000000
LeftFoot -10.175013 2.048401 -8.698042
LeftToeBase 9.554051 -0.000000 -0.000000
RightUpLeg -55.517058 8.084291 6.907200
RightLeg 136.540884 -0.000000 -0.000000
RightFoot -12.212436 0.657536 11.063974
RightToeBase -0.935552 -0.000000 0.000000
235
root 5.323803 36.267273 3.674087 -8.121129 -47.979535 0.479830
Spine 14.689769 -4.143070 -2.403995
Head 4.156049 14.103377 3.411009
LeftShoulder -8.909322 18.509372 12.508835
LeftArm 21.038492 24.496455 -80.658348
LeftForeArm 19.570690 -0.000000 32.748262
LeftHand -12.311129 -0.000000 -10.239335
LeftHandThumb1 -26.253704 0.000000 33.147579
RightShoulder -35.973021 -49.773247 17.769050
RightArm 49.416187 -16.160112 58.161694
RightForeArm 6.973351 -0.000000 24.482761
RightHand 3.431103 -0.000000 5.735787
RightHandThumb1 -24.326973 -0.000000 -32.862282
LeftUpLeg 8.570796 5.681967 -4.591772
LeftLeg 7.076070 -0.000000 -0.000000
LeftFoot -10.133566 2.025573 -8.607517
LeftToeBase 9.441995 -0.000000 -0.000000
RightUpLeg -56.015397 8.147043 6.974626
RightLeg 136.057202 -0.000000 -0.000000
RightFoot -12.627915 0.378154 10.684540
RightToeBase -0.486241 -0.000000 0.000000
236
root 5.320359 36.262784 3.692017 -8.218393 -47.531003 0.500332
Spine 14.800312 -4.101813 -2.429836
Head 4.018775 14.088032 3.455072
LeftShoulder -8.913266 18.437438 12.575393
LeftArm 21.081602 24.710955 -80.593907
LeftForeArm 19.657962 -0.000000 32.893429
LeftHand -12.215964 -0.000000 -10.484500
LeftHandThumb1 -26.253704 0.000000 33.147579
RightShoulder -35.982968 -49.773667 17.816498
RightArm 49.375144 -16.176455 58.170700
RightForeArm 7.007993 -0.000000 24.230416
RightHand 3.493097 -0.000000 5.625604
RightHandThumb1 -24.326973 -0.000000 -32.862282
LeftUpLeg 8.610991 5.414018 -4.650714
LeftLeg 7.179201 -0.000000 -0.000000
LeftFoot -10.137415 1.907662 -8.480370
LeftToeBase 9.383054 -0.000000 -0.000000
RightUpLeg -56.490135 8.248930 7.037973
RightLeg 135.602755 -0.000000 -0.000000
RightFoot -12.764605 0.176504 10.785612
RightToeBase -1.429254 -0.000000 0.000000
